<?xml version="1.0" encoding="UTF-8" standalone="no"?>
<!DOCTYPE svg PUBLIC "-//W3C//DTD SVG 1.1//EN"
 "http://www.w3.org/Graphics/SVG/1.1/DTD/svg11.dtd">
<!-- Generated by graphviz version 2.40.1 (20161225.0304)
 -->
<!-- Title: Service Pages: 1 -->
<svg width="668pt" height="332pt"
 viewBox="0.00 0.00 667.71 332.00" xmlns="http://www.w3.org/2000/svg" xmlns:xlink="http://www.w3.org/1999/xlink">
<g id="graph0" class="graph" transform="scale(1 1) rotate(0) translate(4 328)">
<title>Service</title>
<polygon fill="#ffffff" stroke="transparent" points="-4,4 -4,-328 663.7052,-328 663.7052,4 -4,4"/>
<!-- location -->
<g id="node1" class="node">
<title>location</title>
<ellipse fill="none" stroke="#000000" cx="42.1464" cy="-90" rx="42.2932" ry="18"/>
<text text-anchor="middle" x="42.1464" y="-85.8" font-family="Times,serif" font-size="14.00" fill="#000000">location</text>
</g>
<!-- season -->
<g id="node2" class="node">
<title>season</title>
<ellipse fill="none" stroke="#000000" cx="139.1464" cy="-90" rx="36.5575" ry="18"/>
<text text-anchor="middle" x="139.1464" y="-85.8" font-family="Times,serif" font-size="14.00" fill="#000000">season</text>
</g>
<!-- team -->
<g id="node3" class="node">
<title>team</title>
<ellipse fill="none" stroke="#000000" cx="224.1464" cy="-90" rx="29.6127" ry="18"/>
<text text-anchor="middle" x="224.1464" y="-85.8" font-family="Times,serif" font-size="14.00" fill="#000000">team</text>
</g>
<!-- teamRegistration -->
<g id="node4" class="node">
<title>teamRegistration</title>
<ellipse fill="none" stroke="#000000" cx="289.1464" cy="-162" rx="77.0197" ry="18"/>
<text text-anchor="middle" x="289.1464" y="-157.8" font-family="Times,serif" font-size="14.00" fill="#000000">teamRegistration</text>
</g>
<!-- teamRegistration&#45;&gt;season -->
<g id="edge2" class="edge">
<title>teamRegistration&#45;&gt;season</title>
<path fill="none" stroke="#000000" d="M255.109,-145.6621C231.1481,-134.1609 199.1409,-118.7974 174.8236,-107.1251"/>
<polygon fill="#000000" stroke="#000000" points="176.1129,-103.8617 165.5831,-102.6896 173.0837,-110.1723 176.1129,-103.8617"/>
</g>
<!-- teamRegistration&#45;&gt;team -->
<g id="edge1" class="edge">
<title>teamRegistration&#45;&gt;team</title>
<path fill="none" stroke="#000000" d="M273.0789,-144.2022C264.7729,-135.0017 254.5236,-123.6487 245.5549,-113.7141"/>
<polygon fill="#000000" stroke="#000000" points="247.9972,-111.1963 238.6982,-106.119 242.8013,-115.8871 247.9972,-111.1963"/>
</g>
<!-- player -->
<g id="node5" class="node">
<title>player</title>
<ellipse fill="none" stroke="#000000" cx="419.1464" cy="-162" rx="35.3315" ry="18"/>
<text text-anchor="middle" x="419.1464" y="-157.8" font-family="Times,serif" font-size="14.00" fill="#000000">player</text>
</g>
<!-- user -->
<g id="node10" class="node">
<title>user</title>
<ellipse fill="none" stroke="#000000" cx="419.1464" cy="-90" rx="27.2447" ry="18"/>
<text text-anchor="middle" x="419.1464" y="-85.8" font-family="Times,serif" font-size="14.00" fill="#000000">user</text>
</g>
<!-- player&#45;&gt;user -->
<g id="edge17" class="edge">
<title>player&#45;&gt;user</title>
<path fill="none" stroke="#000000" d="M419.1464,-143.8314C419.1464,-136.131 419.1464,-126.9743 419.1464,-118.4166"/>
<polygon fill="#000000" stroke="#000000" points="422.6465,-118.4132 419.1464,-108.4133 415.6465,-118.4133 422.6465,-118.4132"/>
</g>
<!-- playerRegistration -->
<g id="node6" class="node">
<title>playerRegistration</title>
<ellipse fill="none" stroke="#000000" cx="183.1464" cy="-234" rx="82.2391" ry="18"/>
<text text-anchor="middle" x="183.1464" y="-229.8" font-family="Times,serif" font-size="14.00" fill="#000000">playerRegistration</text>
</g>
<!-- playerRegistration&#45;&gt;season -->
<g id="edge4" class="edge">
<title>playerRegistration&#45;&gt;season</title>
<path fill="none" stroke="#000000" d="M154.2791,-216.972C141.6097,-207.786 128.0648,-195.2004 121.1464,-180 112.0259,-159.9617 117.9938,-135.3368 125.4198,-116.9134"/>
<polygon fill="#000000" stroke="#000000" points="128.6741,-118.2072 129.4858,-107.6435 122.2637,-115.3954 128.6741,-118.2072"/>
</g>
<!-- playerRegistration&#45;&gt;player -->
<g id="edge3" class="edge">
<title>playerRegistration&#45;&gt;player</title>
<path fill="none" stroke="#000000" d="M237.8643,-220.389C276.5596,-210.3328 329.4681,-195.7094 375.1464,-180 377.5365,-179.178 379.9846,-178.295 382.4423,-177.3775"/>
<polygon fill="#000000" stroke="#000000" points="383.8101,-180.6011 391.8687,-173.7229 381.2797,-174.0745 383.8101,-180.6011"/>
</g>
<!-- rosterEntry -->
<g id="node7" class="node">
<title>rosterEntry</title>
<ellipse fill="none" stroke="#000000" cx="354.1464" cy="-234" rx="54.4508" ry="18"/>
<text text-anchor="middle" x="354.1464" y="-229.8" font-family="Times,serif" font-size="14.00" fill="#000000">rosterEntry</text>
</g>
<!-- rosterEntry&#45;&gt;teamRegistration -->
<g id="edge6" class="edge">
<title>rosterEntry&#45;&gt;teamRegistration</title>
<path fill="none" stroke="#000000" d="M338.4117,-216.5708C330.4663,-207.7698 320.6801,-196.9297 311.929,-187.2362"/>
<polygon fill="#000000" stroke="#000000" points="314.4867,-184.8462 305.1877,-179.7689 309.2908,-189.537 314.4867,-184.8462"/>
</g>
<!-- rosterEntry&#45;&gt;player -->
<g id="edge5" class="edge">
<title>rosterEntry&#45;&gt;player</title>
<path fill="none" stroke="#000000" d="M369.881,-216.5708C378.0635,-207.5071 388.1985,-196.2807 397.1445,-186.3713"/>
<polygon fill="#000000" stroke="#000000" points="399.901,-188.541 404.0041,-178.7729 394.7051,-183.8502 399.901,-188.541"/>
</g>
<!-- game -->
<g id="node8" class="node">
<title>game</title>
<ellipse fill="none" stroke="#000000" cx="162.1464" cy="-162" rx="31.9012" ry="18"/>
<text text-anchor="middle" x="162.1464" y="-157.8" font-family="Times,serif" font-size="14.00" fill="#000000">game</text>
</g>
<!-- game&#45;&gt;location -->
<g id="edge10" class="edge">
<title>game&#45;&gt;location</title>
<path fill="none" stroke="#000000" d="M140.1365,-148.7941C122.1009,-137.9727 96.2852,-122.4833 75.6788,-110.1194"/>
<polygon fill="#000000" stroke="#000000" points="77.2906,-107.0049 66.9149,-104.8611 73.6891,-113.0074 77.2906,-107.0049"/>
</g>
<!-- game&#45;&gt;season -->
<g id="edge7" class="edge">
<title>game&#45;&gt;season</title>
<path fill="none" stroke="#000000" d="M156.461,-144.2022C153.89,-136.1541 150.7929,-126.4588 147.9332,-117.5067"/>
<polygon fill="#000000" stroke="#000000" points="151.2231,-116.3033 144.8461,-107.8425 144.5551,-118.4334 151.2231,-116.3033"/>
</g>
<!-- game&#45;&gt;team -->
<g id="edge8" class="edge">
<title>game&#45;&gt;team</title>
<path fill="none" stroke="#000000" d="M171.2766,-144.5708C178.6166,-134.8867 188.9413,-122.7338 198.596,-112.3561"/>
<polygon fill="#000000" stroke="#000000" points="201.4054,-114.4825 205.7879,-104.8366 196.3466,-109.6442 201.4054,-114.4825"/>
</g>
<!-- game&#45;&gt;team -->
<g id="edge9" class="edge">
<title>game&#45;&gt;team</title>
<path fill="none" stroke="#000000" d="M180.5855,-147.0816C189.623,-137.9162 200.2347,-125.9359 208.8229,-115.3186"/>
<polygon fill="#000000" stroke="#000000" points="211.7917,-117.2047 215.208,-107.1757 206.2832,-112.8853 211.7917,-117.2047"/>
</g>
<!-- event -->
<g id="node9" class="node">
<title>event</title>
<ellipse fill="none" stroke="#000000" cx="42.1464" cy="-162" rx="31.9012" ry="18"/>
<text text-anchor="middle" x="42.1464" y="-157.8" font-family="Times,serif" font-size="14.00" fill="#000000">event</text>
</g>
<!-- event&#45;&gt;location -->
<g id="edge12" class="edge">
<title>event&#45;&gt;location</title>
<path fill="none" stroke="#000000" d="M42.1464,-143.8314C42.1464,-136.131 42.1464,-126.9743 42.1464,-118.4166"/>
<polygon fill="#000000" stroke="#000000" points="45.6465,-118.4132 42.1464,-108.4133 38.6465,-118.4133 45.6465,-118.4132"/>
</g>
<!-- event&#45;&gt;season -->
<g id="edge11" class="edge">
<title>event&#45;&gt;season</title>
<path fill="none" stroke="#000000" d="M61.7758,-147.4297C75.7884,-137.0286 94.8564,-122.875 110.5563,-111.2215"/>
<polygon fill="#000000" stroke="#000000" points="112.9348,-113.8149 118.8784,-105.0442 108.7626,-108.1941 112.9348,-113.8149"/>
</g>
<!-- role -->
<g id="node11" class="node">
<title>role</title>
<ellipse fill="none" stroke="#000000" cx="260.1464" cy="-18" rx="27" ry="18"/>
<text text-anchor="middle" x="260.1464" y="-13.8" font-family="Times,serif" font-size="14.00" fill="#000000">role</text>
</g>
<!-- user&#45;&gt;role -->
<g id="edge13" class="edge">
<title>user&#45;&gt;role</title>
<path fill="none" stroke="#000000" d="M395.8678,-80.1907C371.0164,-69.6232 330.5611,-52.1459 296.1464,-36 294.3909,-35.1764 292.5929,-34.3199 290.7824,-33.4472"/>
<polygon fill="#000000" stroke="#000000" points="292.2829,-30.2848 281.763,-29.0272 289.2025,-36.5707 292.2829,-30.2848"/>
</g>
<!-- user_oauth -->
<g id="node12" class="node">
<title>user_oauth</title>
<ellipse fill="none" stroke="#000000" cx="358.1464" cy="-18" rx="53.3129" ry="18"/>
<text text-anchor="middle" x="358.1464" y="-13.8" font-family="Times,serif" font-size="14.00" fill="#000000">user_oauth</text>
</g>
<!-- user&#45;&gt;user_oauth -->
<g id="edge14" class="edge">
<title>user&#45;&gt;user_oauth</title>
<path fill="none" stroke="#000000" d="M405.6085,-74.0209C397.9644,-64.9983 388.2361,-53.5157 379.5796,-43.2982"/>
<polygon fill="#000000" stroke="#000000" points="382.062,-40.8138 372.9273,-35.4464 376.7211,-45.3388 382.062,-40.8138"/>
</g>
<!-- user_local -->
<g id="node13" class="node">
<title>user_local</title>
<ellipse fill="none" stroke="#000000" cx="480.1464" cy="-18" rx="50.9405" ry="18"/>
<text text-anchor="middle" x="480.1464" y="-13.8" font-family="Times,serif" font-size="14.00" fill="#000000">user_local</text>
</g>
<!-- user&#45;&gt;user_local -->
<g id="edge15" class="edge">
<title>user&#45;&gt;user_local</title>
<path fill="none" stroke="#000000" d="M432.6842,-74.0209C440.3283,-64.9983 450.0566,-53.5157 458.7131,-43.2982"/>
<polygon fill="#000000" stroke="#000000" points="461.5716,-45.3388 465.3654,-35.4464 456.2307,-40.8138 461.5716,-45.3388"/>
</g>
<!-- user_signin -->
<g id="node14" class="node">
<title>user_signin</title>
<ellipse fill="none" stroke="#000000" cx="604.1464" cy="-18" rx="55.6178" ry="18"/>
<text text-anchor="middle" x="604.1464" y="-13.8" font-family="Times,serif" font-size="14.00" fill="#000000">user_signin</text>
</g>
<!-- user&#45;&gt;user_signin -->
<g id="edge16" class="edge">
<title>user&#45;&gt;user_signin</title>
<path fill="none" stroke="#000000" d="M442.5767,-80.8812C471.7623,-69.5224 522.2616,-49.8687 559.0511,-35.5506"/>
<polygon fill="#000000" stroke="#000000" points="560.5107,-38.7383 568.5603,-31.8497 557.9718,-32.215 560.5107,-38.7383"/>
</g>
<!-- disciplinaryAction -->
<g id="node15" class="node">
<title>disciplinaryAction</title>
<ellipse fill="none" stroke="#000000" cx="354.1464" cy="-306" rx="82.8225" ry="18"/>
<text text-anchor="middle" x="354.1464" y="-301.8" font-family="Times,serif" font-size="14.00" fill="#000000">disciplinaryAction</text>
</g>
<!-- disciplinaryAction&#45;&gt;rosterEntry -->
<g id="edge18" class="edge">
<title>disciplinaryAction&#45;&gt;rosterEntry</title>
<path fill="none" stroke="#000000" d="M354.1464,-287.8314C354.1464,-280.131 354.1464,-270.9743 354.1464,-262.4166"/>
<polygon fill="#000000" stroke="#000000" points="357.6465,-262.4132 354.1464,-252.4133 350.6465,-262.4133 357.6465,-262.4132"/>
</g>
</g>
</svg>